<svg width="720" height="720" viewBox="0 0 720 720" fill="none" xmlns="http://www.w3.org/2000/svg">
<rect width="720" height="720" rx="130" fill="#F67B1F"/>
<path fill-rule="evenodd" clip-rule="evenodd" d="M336.127 135.956C332.04 136.387 325.441 137.289 321.462 137.96L314.227 139.18L308.746 152.986C298.433 178.963 291.75 202.292 287.41 227.463C285.374 239.263 285.06 244.866 285.032 269.827C285.002 296.766 285.186 299.645 287.927 315.148C289.536 324.253 292.955 340.207 295.524 350.601C298.093 360.996 300.011 369.684 299.788 369.908C299.173 370.523 289.142 342.117 284.992 328.011C276.329 298.551 273.517 278.813 273.578 247.86C273.638 217.085 276.834 193.726 285.647 159.661C287.407 152.861 288.611 147.063 288.323 146.776C287.681 146.133 266.685 154.262 264.307 156.073C260.615 158.886 256.62 204.594 257.565 233.214C259.126 280.458 268.797 317.079 291.861 363.089C295.276 369.903 297.879 375.477 297.643 375.477C296.686 375.477 279.445 346.909 273.339 335.205C251.557 293.456 241.655 249.36 241.219 192.16C241.124 179.647 240.654 169.409 240.177 169.409C239.699 169.408 235.103 172.288 229.962 175.809L220.615 182.211L221.229 189.146C228.224 268.136 246.544 317.156 288.87 370.136L296.062 379.138L284.9 367.632C244.356 325.834 221.569 279.96 208.039 212.891C206.3 204.273 204.729 197.073 204.547 196.892C204.366 196.71 200.81 200.15 196.645 204.534C187.593 214.064 187.561 211.333 197.052 240.015C209.818 278.6 225.997 309.911 246.236 335.205C253.703 344.537 272.284 363.358 282.102 371.534C294.79 382.1 291.209 380.674 275.393 368.861C236.45 339.774 206.145 298.496 183.922 244.267C180.617 236.203 177.526 229.484 177.052 229.333C176.362 229.114 168.968 239.743 165.832 245.461C164.536 247.826 178.765 274.002 192.441 294.409C216.793 330.748 243.459 356.403 276.567 375.346C281.72 378.295 285.459 380.707 284.875 380.707C284.292 380.707 277.721 377.688 270.275 373.999C230.446 354.263 197.849 323.93 166.702 277.621C161.691 270.17 157.25 263.938 156.833 263.773C156.081 263.473 148.471 280.238 148.471 282.195C148.471 285.47 178.347 318.855 192.761 331.689C219.679 355.653 242.84 369.791 272.426 380.315C287.668 385.736 286.173 386.133 268.682 381.308C228.284 370.164 193.973 348.842 153.431 309.689C147.817 304.266 142.957 300.096 142.632 300.423C141.916 301.138 137.542 322.582 136.562 330.18L135.861 335.617L147.914 344.302C166.096 357.405 180.789 366.358 198.158 374.918C249.458 400.202 290.315 405.647 363.246 396.914C375.802 395.411 386.842 394.33 387.781 394.511C389.825 394.904 348.752 403.843 331.004 406.866C282.695 415.098 239.617 410.331 191.882 391.471C176.93 385.564 155.573 375.311 143.059 368.031C139.219 365.798 135.806 363.971 135.475 363.971C134.022 363.971 136.198 392.153 138.02 396.947C139.97 402.074 192.199 417.717 226.101 423.327C242.123 425.977 291.32 425.902 305.878 423.204C324.473 419.759 340.953 415.308 367.093 406.67C381.188 402.012 393.427 398.011 394.29 397.777C401.615 395.796 350.556 418.527 335.064 424.143C282.73 443.113 228.659 444.846 160.098 429.749C152.397 428.054 145.876 426.886 145.607 427.155C144.946 427.817 149.179 440.399 152.733 448.335C155.088 453.597 156.154 454.876 158.58 455.354C175.536 458.696 232.12 459.465 255.102 456.665C302.029 450.948 332.253 439.927 380.953 410.772C391.164 404.659 399.52 399.804 399.52 399.982C399.52 400.162 393.518 404.957 386.183 410.638C353.576 435.892 324.216 452.407 294.753 462.068C261.611 472.935 234.398 477.208 182.742 479.658L169.42 480.29L175.691 489.445C185.066 503.133 184.118 502.611 196.85 501.088C225.316 497.682 253.454 491.71 277.023 484.073C318.158 470.744 350.276 451.534 382.983 420.699C388.923 415.101 394.939 409.578 396.352 408.427C404.539 401.765 374.281 435.162 362.671 445.603C323.196 481.107 276.024 503.108 207.834 517.819C204.526 518.533 201.819 519.495 201.819 519.959C201.819 521.243 219.671 536.567 221.167 536.567C221.89 536.567 228.776 534.411 236.471 531.776C311.719 506.007 358.865 472.328 395.233 418.363C404.137 405.15 404.73 404.711 399.496 415.204C382.103 450.069 354.199 481.847 318.43 507.523C300.408 520.46 271.058 536.925 248.891 546.535C245.151 548.157 241.695 549.821 241.211 550.234C240.726 550.647 245.183 553.709 251.116 557.039L261.901 563.092L268.041 559.745C296.574 544.184 326.979 521.488 348.787 499.472C370.844 477.204 388.882 450.711 400.235 423.906C402.966 417.462 405.369 412.359 405.577 412.567C406.279 413.269 397.705 437.636 393.373 447.248C379.907 477.132 361.9 502.132 335.06 528.209C321.971 540.924 301.639 557.947 289.437 566.403C286.136 568.69 283.429 570.841 283.422 571.181C283.409 571.839 304.078 578.408 306.159 578.408C308.349 578.408 339.891 546.868 351.141 533.428C379.797 499.193 398.554 462.393 407.388 423.072C409.938 411.724 409.966 411.666 409.412 418.887C407.695 441.301 398.296 472.742 385.816 497.827C373.161 523.262 360.387 542.25 338.226 568.565C332.138 575.795 327.379 581.93 327.648 582.199C328.479 583.03 348.239 584.918 349.808 584.316C350.622 584.003 355 578.193 359.537 571.402C395.6 517.438 412.767 468.702 413.25 418.915C413.38 405.628 413.408 405.471 414.373 412.611C414.918 416.638 415.148 429.112 414.884 440.331C414.505 456.47 413.84 463.677 411.697 474.85C406.034 504.364 395.627 533.694 379.436 565.772C374.377 575.794 370.44 584.196 370.687 584.444C371.116 584.871 392.355 582.825 392.786 582.314C392.9 582.179 395.599 575.008 398.786 566.379C408.394 540.352 415.138 514.933 419.044 490.018C420.955 477.824 421.646 441.026 420.25 425.687L419.536 417.841L421.013 423.595C426.161 443.655 428.191 477.316 425.72 501.685C423.526 523.331 417.34 555.589 411.458 576.054C410.481 579.456 412.617 579.179 429.665 573.689L444.32 568.971L444.92 565.06C448.809 539.717 449.568 481.253 446.28 460.206C443.807 444.37 441.096 432.903 436.53 418.963C427.045 390.004 417.343 373.239 386.542 332.589C380.222 324.247 373.909 315.774 372.513 313.761L369.978 310.1L372.864 313.238C412.323 356.143 420.488 365.908 430.802 382.538C456.078 423.291 468.47 475.539 468.543 541.647C468.556 555.063 468.739 556.596 470.254 556.014C471.187 555.657 477.071 552.025 483.329 547.943C493.161 541.533 494.709 540.14 494.709 537.7C494.709 530.95 490.174 499.018 486.896 482.696C478.056 438.667 463.062 403.042 441.245 374.234C431.876 361.862 413.531 343.356 391.413 323.968C380.913 314.763 372.323 307.061 372.323 306.853C372.323 306.254 404.194 328.934 415.384 337.495C464.988 375.447 494.355 426.399 511.128 503.616C513.252 513.397 515.188 521.634 515.429 521.922C516.162 522.794 534.487 502.73 535.083 500.403C535.781 497.677 529.904 479.202 521.631 458.114C508.75 425.282 491.991 396.563 472.479 373.888C452.534 350.71 432.008 335.309 390.898 312.68C380.117 306.744 371.449 301.733 371.638 301.545C371.827 301.356 379.942 304.434 389.674 308.386C419.585 320.535 441.923 332.57 460.561 346.578C472.238 355.354 492.188 374.893 502.349 387.506C518.641 407.727 536.391 437.013 547.603 462.176C550.442 468.545 553.134 473.767 553.584 473.78C554.035 473.794 557.51 467.482 561.306 459.755L568.209 445.705L561.668 435.121C545.888 409.587 528.472 387.217 510.351 369.201C478.807 337.842 446.138 319.524 395.404 304.755C375.235 298.884 375.806 298.628 399.52 302.909C471.982 315.992 521.496 348.368 575.96 418.278C576.869 419.443 577.872 416.373 580.113 405.563C584.073 386.469 584.476 387.798 571.02 375.571C509.571 319.73 454.45 296.929 378.281 295.841L368.662 295.703L375.984 294.729C387.289 293.227 427.935 293.235 439.269 294.743C485.1 300.84 524.864 316.989 570.452 348.02L585 357.922L584.315 345.93C583.198 326.367 584.358 328.267 568.76 320.451C523.537 297.79 483.502 287.046 439.792 285.843C419.758 285.291 414.283 285.632 386.444 289.162C382.854 289.617 383.152 289.4 388.536 287.624C406.333 281.759 431.755 278.243 456.56 278.216C491.485 278.178 521.161 283.577 562.625 297.513C570.35 300.108 576.853 302.05 577.076 301.827C577.299 301.604 575.686 296.078 573.491 289.547C568.805 275.602 570.758 276.856 547.011 272.566C520.692 267.81 505.292 266.37 480.588 266.35C443.639 266.321 414.701 271.758 383.568 284.583C379.685 286.182 376.507 287.288 376.507 287.039C376.507 286.218 393.241 278.157 404.581 273.514C435.101 261.024 467.605 255.199 506.739 255.211C524.094 255.215 543.302 256.263 555.725 257.881L560.777 258.54L559.014 255.031C558.046 253.101 555.536 248.516 553.439 244.843L549.626 238.165L529.228 238.819C469.519 240.733 423.939 252.82 385.623 276.902C380.034 280.414 375.461 283.079 375.461 282.823C375.461 282.568 380.478 278.634 386.609 274.081C417.996 250.777 454.457 236.506 502.832 228.59C511.309 227.203 522.246 225.735 527.136 225.328C532.027 224.92 536.647 224.257 537.404 223.853C538.706 223.158 537.345 221.127 528.182 210.09C526.67 208.268 526.256 208.271 516.676 210.168C456.012 222.177 413.918 241.67 379.59 273.649C371.861 280.851 371.325 281.197 375.221 276.472C382.741 267.351 401.78 249.79 412.149 242.412C438.099 223.943 463.553 212.522 513.538 196.918C514.682 196.561 513.974 195.426 510.923 192.724C502.412 185.187 491.243 176.73 489.801 176.73C487.292 176.73 470.91 183.815 454.96 191.797C425.551 206.515 405.593 220.561 385.887 240.41C360.462 266.019 349.666 284.029 329.677 334.181C321.025 355.888 309.8 381.575 312.317 373.908C312.695 372.757 316.005 361.931 319.674 349.849C328.52 320.714 333.055 307.027 338.04 294.409C358.716 242.075 395.664 203.071 457.039 168.789C462.8 165.572 467.512 162.722 467.512 162.457C467.512 161.541 443.973 150.596 440.636 149.96C437.65 149.39 435.991 150.291 424.946 158.482C380.184 191.679 351.262 226.518 334.619 267.295C326.682 286.74 322.834 302.145 313.135 353.297C311.03 364.398 309.172 373.342 309.005 373.171C308.157 372.306 314.129 312.116 316.446 298.172C325.466 243.889 348.078 202.779 393.98 157.212L411.007 140.309L400.818 138.463C395.213 137.448 387.614 136.582 383.93 136.538L377.231 136.458L369.995 145.349C341.282 180.632 321.402 218.405 312.233 255.101C305.8 280.847 303.93 303.714 304.697 347.234L305.259 379.138L303.257 366.586C291.622 293.619 295.137 246.773 316.175 194.428C322.353 179.055 331.86 159.569 339.426 146.771C346.423 134.936 346.455 134.867 344.901 135.031C344.162 135.108 340.213 135.526 336.127 135.956ZM384.714 346.449L408.728 388.029H359.668C332.684 388.029 310.607 387.825 310.607 387.575C310.607 385.81 359.218 303.377 359.871 304.035C360.328 304.494 371.507 323.58 384.714 346.449Z" fill="white"/>
</svg>
